<?xml version="1.0" encoding="UTF-8" standalone="no"?>
<!DOCTYPE svg PUBLIC "-//W3C//DTD SVG 1.1//EN"
 "http://www.w3.org/Graphics/SVG/1.1/DTD/svg11.dtd">
<!-- Generated by graphviz version 2.49.3 (0)
 -->
<!-- Pages: 1 -->
<svg width="684pt" height="476pt"
 viewBox="0.00 0.00 683.98 476.00" xmlns="http://www.w3.org/2000/svg" xmlns:xlink="http://www.w3.org/1999/xlink">
<g id="graph0" class="graph" transform="scale(1 1) rotate(0) translate(4 472)">
<polygon fill="white" stroke="transparent" points="-4,4 -4,-472 679.98,-472 679.98,4 -4,4"/>
<!-- 140417283540544 -->
<g id="node1" class="node">
<title>140417283540544</title>
<ellipse fill="#90ee90" stroke="black" cx="473.14" cy="-162" rx="96.68" ry="18"/>
<text text-anchor="middle" x="473.14" y="-158.3" font-family="Times,serif" font-size="14.00">576.00, grad: 1.00</text>
</g>
<!-- 140417283541312+ -->
<g id="node11" class="node">
<title>140417283541312+</title>
<ellipse fill="#ff7f7f" stroke="black" cx="373.14" cy="-90" rx="27" ry="18"/>
<text text-anchor="middle" x="373.14" y="-86.3" font-family="Times,serif" font-size="14.00">+</text>
</g>
<!-- 140417283540544&#45;&gt;140417283541312+ -->
<g id="edge8" class="edge">
<title>140417283540544&#45;&gt;140417283541312+</title>
<path fill="none" stroke="black" d="M449.44,-144.41C434.48,-133.93 415.11,-120.38 399.64,-109.55"/>
<polygon fill="black" stroke="black" points="401.24,-106.4 391.04,-103.53 397.23,-112.13 401.24,-106.4"/>
</g>
<!-- 140417283540544^2 -->
<g id="node2" class="node">
<title>140417283540544^2</title>
<ellipse fill="#ff7f7f" stroke="black" cx="473.14" cy="-234" rx="27" ry="18"/>
<text text-anchor="middle" x="473.14" y="-230.3" font-family="Times,serif" font-size="14.00">^2</text>
</g>
<!-- 140417283540544^2&#45;&gt;140417283540544 -->
<g id="edge1" class="edge">
<title>140417283540544^2&#45;&gt;140417283540544</title>
<path fill="none" stroke="black" d="M473.14,-215.7C473.14,-207.98 473.14,-198.71 473.14,-190.11"/>
<polygon fill="black" stroke="black" points="476.64,-190.1 473.14,-180.1 469.64,-190.1 476.64,-190.1"/>
</g>
<!-- 140417293357648 -->
<g id="node3" class="node">
<title>140417293357648</title>
<ellipse fill="#90ee90" stroke="black" cx="367.14" cy="-450" rx="96.68" ry="18"/>
<text text-anchor="middle" x="367.14" y="-446.3" font-family="Times,serif" font-size="14.00">2.00, grad: 576.00</text>
</g>
<!-- 140417293357264* -->
<g id="node7" class="node">
<title>140417293357264*</title>
<ellipse fill="#ff7f7f" stroke="black" cx="473.14" cy="-378" rx="27" ry="18"/>
<text text-anchor="middle" x="473.14" y="-374.3" font-family="Times,serif" font-size="14.00">*</text>
</g>
<!-- 140417293357648&#45;&gt;140417293357264* -->
<g id="edge9" class="edge">
<title>140417293357648&#45;&gt;140417293357264*</title>
<path fill="none" stroke="black" d="M391.99,-432.59C408.1,-421.95 429.1,-408.08 445.7,-397.12"/>
<polygon fill="black" stroke="black" points="447.99,-399.8 454.41,-391.37 444.14,-393.96 447.99,-399.8"/>
</g>
<!-- 140417293297744 -->
<g id="node4" class="node">
<title>140417293297744</title>
<ellipse fill="#90ee90" stroke="black" cx="85.14" cy="-306" rx="85.29" ry="18"/>
<text text-anchor="middle" x="85.14" y="-302.3" font-family="Times,serif" font-size="14.00">5.00, grad: 0.20</text>
</g>
<!-- 140417283541216* -->
<g id="node9" class="node">
<title>140417283541216*</title>
<ellipse fill="#ff7f7f" stroke="black" cx="273.14" cy="-234" rx="27" ry="18"/>
<text text-anchor="middle" x="273.14" y="-230.3" font-family="Times,serif" font-size="14.00">*</text>
</g>
<!-- 140417293297744&#45;&gt;140417283541216* -->
<g id="edge5" class="edge">
<title>140417293297744&#45;&gt;140417283541216*</title>
<path fill="none" stroke="black" d="M125.47,-289.98C159.74,-277.22 208.32,-259.13 240.27,-247.24"/>
<polygon fill="black" stroke="black" points="241.87,-250.38 250.02,-243.61 239.43,-243.82 241.87,-250.38"/>
</g>
<!-- 140417283541120 -->
<g id="node5" class="node">
<title>140417283541120</title>
<ellipse fill="#90ee90" stroke="black" cx="273.14" cy="-306" rx="85.29" ry="18"/>
<text text-anchor="middle" x="273.14" y="-302.3" font-family="Times,serif" font-size="14.00">0.20, grad: 5.00</text>
</g>
<!-- 140417283541120&#45;&gt;140417283541216* -->
<g id="edge6" class="edge">
<title>140417283541120&#45;&gt;140417283541216*</title>
<path fill="none" stroke="black" d="M273.14,-287.7C273.14,-279.98 273.14,-270.71 273.14,-262.11"/>
<polygon fill="black" stroke="black" points="276.64,-262.1 273.14,-252.1 269.64,-262.1 276.64,-262.1"/>
</g>
<!-- 140417293357264 -->
<g id="node6" class="node">
<title>140417293357264</title>
<ellipse fill="#90ee90" stroke="black" cx="473.14" cy="-306" rx="96.68" ry="18"/>
<text text-anchor="middle" x="473.14" y="-302.3" font-family="Times,serif" font-size="14.00">24.00, grad: 48.00</text>
</g>
<!-- 140417293357264&#45;&gt;140417283540544^2 -->
<g id="edge11" class="edge">
<title>140417293357264&#45;&gt;140417283540544^2</title>
<path fill="none" stroke="black" d="M473.14,-287.7C473.14,-279.98 473.14,-270.71 473.14,-262.11"/>
<polygon fill="black" stroke="black" points="476.64,-262.1 473.14,-252.1 469.64,-262.1 476.64,-262.1"/>
</g>
<!-- 140417293357264*&#45;&gt;140417293357264 -->
<g id="edge2" class="edge">
<title>140417293357264*&#45;&gt;140417293357264</title>
<path fill="none" stroke="black" d="M473.14,-359.7C473.14,-351.98 473.14,-342.71 473.14,-334.11"/>
<polygon fill="black" stroke="black" points="476.64,-334.1 473.14,-324.1 469.64,-334.1 476.64,-334.1"/>
</g>
<!-- 140417283541216 -->
<g id="node8" class="node">
<title>140417283541216</title>
<ellipse fill="#90ee90" stroke="black" cx="273.14" cy="-162" rx="85.29" ry="18"/>
<text text-anchor="middle" x="273.14" y="-158.3" font-family="Times,serif" font-size="14.00">1.00, grad: 1.00</text>
</g>
<!-- 140417283541216&#45;&gt;140417283541312+ -->
<g id="edge7" class="edge">
<title>140417283541216&#45;&gt;140417283541312+</title>
<path fill="none" stroke="black" d="M296.59,-144.59C311.69,-134.02 331.34,-120.26 346.95,-109.33"/>
<polygon fill="black" stroke="black" points="348.97,-112.19 355.15,-103.59 344.95,-106.46 348.97,-112.19"/>
</g>
<!-- 140417283541216*&#45;&gt;140417283541216 -->
<g id="edge3" class="edge">
<title>140417283541216*&#45;&gt;140417283541216</title>
<path fill="none" stroke="black" d="M273.14,-215.7C273.14,-207.98 273.14,-198.71 273.14,-190.11"/>
<polygon fill="black" stroke="black" points="276.64,-190.1 273.14,-180.1 269.64,-190.1 276.64,-190.1"/>
</g>
<!-- 140417283541312 -->
<g id="node10" class="node">
<title>140417283541312</title>
<ellipse fill="#90ee90" stroke="black" cx="373.14" cy="-18" rx="96.68" ry="18"/>
<text text-anchor="middle" x="373.14" y="-14.3" font-family="Times,serif" font-size="14.00">577.00, grad: 1.00</text>
</g>
<!-- 140417283541312+&#45;&gt;140417283541312 -->
<g id="edge4" class="edge">
<title>140417283541312+&#45;&gt;140417283541312</title>
<path fill="none" stroke="black" d="M373.14,-71.7C373.14,-63.98 373.14,-54.71 373.14,-46.11"/>
<polygon fill="black" stroke="black" points="376.64,-46.1 373.14,-36.1 369.64,-46.1 376.64,-46.1"/>
</g>
<!-- 140417294817648 -->
<g id="node12" class="node">
<title>140417294817648</title>
<ellipse fill="#90ee90" stroke="black" cx="579.14" cy="-450" rx="96.68" ry="18"/>
<text text-anchor="middle" x="579.14" y="-446.3" font-family="Times,serif" font-size="14.00">12.00, grad: 96.00</text>
</g>
<!-- 140417294817648&#45;&gt;140417293357264* -->
<g id="edge10" class="edge">
<title>140417294817648&#45;&gt;140417293357264*</title>
<path fill="none" stroke="black" d="M554.29,-432.59C538.18,-421.95 517.19,-408.08 500.59,-397.12"/>
<polygon fill="black" stroke="black" points="502.15,-393.96 491.88,-391.37 498.29,-399.8 502.15,-393.96"/>
</g>
</g>
</svg>
